<mxfile host="app.diagrams.net" modified="2023-05-05T17:43:02.573Z" agent="Mozilla/5.0 (Windows NT 10.0; Win64; x64) AppleWebKit/537.36 (KHTML, like Gecko) Chrome/112.0.0.0 Safari/537.36" etag="NV5IBolfWK-5E5NwUOLZ" version="21.1.1" type="device">
  <diagram id="InXj2A44qZ7x0LNndq-P" name="第 1 页">
    <mxGraphModel dx="1815" dy="540" grid="1" gridSize="10" guides="1" tooltips="1" connect="1" arrows="1" fold="1" page="1" pageScale="1" pageWidth="827" pageHeight="1169" math="0" shadow="0">
      <root>
        <mxCell id="0" />
        <mxCell id="1" parent="0" />
        <mxCell id="KvxemxDDFhoRBfrYI5if-1" value="" style="rounded=1;whiteSpace=wrap;html=1;fillColor=none;dashed=1;" parent="1" vertex="1">
          <mxGeometry x="90" y="500" width="150" height="200" as="geometry" />
        </mxCell>
        <mxCell id="KvxemxDDFhoRBfrYI5if-2" value="" style="rounded=1;whiteSpace=wrap;html=1;fillColor=none;dashed=1;" parent="1" vertex="1">
          <mxGeometry x="264" y="500" width="150" height="200" as="geometry" />
        </mxCell>
        <mxCell id="KvxemxDDFhoRBfrYI5if-27" style="edgeStyle=orthogonalEdgeStyle;rounded=0;orthogonalLoop=1;jettySize=auto;html=1;entryX=0.983;entryY=0.931;entryDx=0;entryDy=0;fontSize=16;shape=link;entryPerimeter=0;" parent="1" source="KvxemxDDFhoRBfrYI5if-4" target="KvxemxDDFhoRBfrYI5if-26" edge="1">
          <mxGeometry relative="1" as="geometry">
            <Array as="points">
              <mxPoint x="100" y="802" />
            </Array>
          </mxGeometry>
        </mxCell>
        <mxCell id="KvxemxDDFhoRBfrYI5if-4" value="" style="rounded=1;whiteSpace=wrap;html=1;fillColor=#f5f5f5;fontColor=#333333;strokeColor=#666666;" parent="1" vertex="1">
          <mxGeometry x="160" y="720" width="180" height="110" as="geometry" />
        </mxCell>
        <mxCell id="KvxemxDDFhoRBfrYI5if-6" value="" style="rounded=1;whiteSpace=wrap;html=1;fillColor=#f5f5f5;strokeColor=#666666;fontColor=#333333;" parent="1" vertex="1">
          <mxGeometry x="170" y="740" width="160" height="80" as="geometry" />
        </mxCell>
        <mxCell id="KvxemxDDFhoRBfrYI5if-7" value="Hart 0" style="text;strokeColor=none;fillColor=none;html=1;fontSize=24;fontStyle=1;verticalAlign=middle;align=center;" parent="1" vertex="1">
          <mxGeometry x="115" y="460" width="100" height="40" as="geometry" />
        </mxCell>
        <mxCell id="KvxemxDDFhoRBfrYI5if-8" value="Hart 1" style="text;strokeColor=none;fillColor=none;html=1;fontSize=24;fontStyle=1;verticalAlign=middle;align=center;" parent="1" vertex="1">
          <mxGeometry x="291.5" y="460" width="100" height="40" as="geometry" />
        </mxCell>
        <mxCell id="KvxemxDDFhoRBfrYI5if-10" value="UINTC" style="text;strokeColor=none;fillColor=none;html=1;fontSize=24;fontStyle=1;verticalAlign=middle;align=center;" parent="1" vertex="1">
          <mxGeometry x="200" y="830" width="100" height="40" as="geometry" />
        </mxCell>
        <mxCell id="KvxemxDDFhoRBfrYI5if-18" value="" style="rounded=0;whiteSpace=wrap;html=1;fontSize=6;fillColor=none;" parent="1" vertex="1">
          <mxGeometry x="-20" y="460" width="60" height="380" as="geometry" />
        </mxCell>
        <mxCell id="KvxemxDDFhoRBfrYI5if-19" value="&lt;p style=&quot;line-height: 100%; font-size: 14px;&quot;&gt;&lt;font style=&quot;font-size: 14px;&quot;&gt;Physical&lt;br&gt;Memory&lt;br&gt;&lt;/font&gt;&lt;/p&gt;" style="text;strokeColor=none;fillColor=none;html=1;fontSize=24;fontStyle=1;verticalAlign=middle;align=center;" parent="1" vertex="1">
          <mxGeometry x="-40" y="420" width="100" height="40" as="geometry" />
        </mxCell>
        <mxCell id="KvxemxDDFhoRBfrYI5if-25" style="edgeStyle=orthogonalEdgeStyle;rounded=0;orthogonalLoop=1;jettySize=auto;html=1;entryX=1;entryY=0.5;entryDx=0;entryDy=0;fontSize=16;" parent="1" source="KvxemxDDFhoRBfrYI5if-20" target="KvxemxDDFhoRBfrYI5if-22" edge="1">
          <mxGeometry relative="1" as="geometry" />
        </mxCell>
        <mxCell id="KvxemxDDFhoRBfrYI5if-20" value="Send Status Table" style="rounded=0;whiteSpace=wrap;html=1;fontSize=16;fillColor=#dae8fc;strokeColor=#6c8ebf;" parent="1" vertex="1">
          <mxGeometry x="110" y="520" width="110" height="50" as="geometry" />
        </mxCell>
        <mxCell id="KvxemxDDFhoRBfrYI5if-22" value="Frame" style="rounded=0;whiteSpace=wrap;html=1;fontSize=16;fillColor=#dae8fc;strokeColor=#6c8ebf;" parent="1" vertex="1">
          <mxGeometry x="-20" y="525" width="60" height="40" as="geometry" />
        </mxCell>
        <mxCell id="KvxemxDDFhoRBfrYI5if-26" value="MMIO" style="rounded=0;whiteSpace=wrap;html=1;fontSize=16;fillColor=#f5f5f5;fontColor=#333333;strokeColor=#666666;" parent="1" vertex="1">
          <mxGeometry x="-20" y="765" width="60" height="40" as="geometry" />
        </mxCell>
        <mxCell id="KvxemxDDFhoRBfrYI5if-28" value="" style="rounded=1;whiteSpace=wrap;html=1;fontSize=16;" parent="1" vertex="1">
          <mxGeometry x="110" y="576.88" width="110" height="66.25" as="geometry" />
        </mxCell>
        <mxCell id="KvxemxDDFhoRBfrYI5if-32" value="&lt;b&gt;suist&lt;/b&gt;" style="rounded=1;whiteSpace=wrap;html=1;fontSize=14;fillColor=#d5e8d4;strokeColor=#82b366;" parent="1" vertex="1">
          <mxGeometry x="117.5" y="590" width="95" height="22.5" as="geometry" />
        </mxCell>
        <mxCell id="KvxemxDDFhoRBfrYI5if-34" value="&lt;b&gt;suirs&lt;/b&gt;" style="rounded=1;whiteSpace=wrap;html=1;fontSize=14;fillColor=#f8cecc;strokeColor=#b85450;" parent="1" vertex="1">
          <mxGeometry x="117.5" y="612.5" width="95" height="22.5" as="geometry" />
        </mxCell>
        <mxCell id="KvxemxDDFhoRBfrYI5if-38" value="" style="rounded=1;whiteSpace=wrap;html=1;fontSize=16;" parent="1" vertex="1">
          <mxGeometry x="284" y="570" width="110" height="116.25" as="geometry" />
        </mxCell>
        <mxCell id="KvxemxDDFhoRBfrYI5if-40" value="&lt;b&gt;suirs&lt;/b&gt;" style="rounded=1;whiteSpace=wrap;html=1;fontSize=14;fillColor=#d5e8d4;strokeColor=#82b366;" parent="1" vertex="1">
          <mxGeometry x="291.5" y="652.5" width="95" height="22.5" as="geometry" />
        </mxCell>
        <mxCell id="KvxemxDDFhoRBfrYI5if-41" value="&lt;b&gt;suist&lt;/b&gt;" style="rounded=1;whiteSpace=wrap;html=1;fontSize=14;fillColor=#f8cecc;strokeColor=#b85450;" parent="1" vertex="1">
          <mxGeometry x="291.5" y="629.75" width="95" height="22.5" as="geometry" />
        </mxCell>
        <mxCell id="KvxemxDDFhoRBfrYI5if-44" value="&lt;span style=&quot;font-weight: normal; font-size: 11px;&quot;&gt;0x0&lt;/span&gt;" style="text;strokeColor=none;fillColor=none;html=1;fontSize=24;fontStyle=1;verticalAlign=middle;align=center;" parent="1" vertex="1">
          <mxGeometry x="-90" y="810" width="100" height="40" as="geometry" />
        </mxCell>
        <mxCell id="KvxemxDDFhoRBfrYI5if-47" value="" style="rounded=0;whiteSpace=wrap;html=1;fontSize=11;" parent="1" vertex="1">
          <mxGeometry x="170" y="760" width="160" height="20" as="geometry" />
        </mxCell>
        <mxCell id="W3VaNrcH3F-3W_s_nSpY-7" value="vector" style="edgeStyle=orthogonalEdgeStyle;rounded=0;orthogonalLoop=1;jettySize=auto;html=1;entryX=0;entryY=0.5;entryDx=0;entryDy=0;" edge="1" parent="1" source="KvxemxDDFhoRBfrYI5if-63" target="KvxemxDDFhoRBfrYI5if-47">
          <mxGeometry relative="1" as="geometry">
            <Array as="points">
              <mxPoint x="60" y="669" />
              <mxPoint x="60" y="770" />
            </Array>
          </mxGeometry>
        </mxCell>
        <mxCell id="KvxemxDDFhoRBfrYI5if-63" value="&lt;b&gt;&lt;font&gt;UIPI SEND&lt;/font&gt;&lt;/b&gt;" style="rounded=1;whiteSpace=wrap;html=1;fontFamily=Helvetica;fontSize=14;fillColor=#fff2cc;strokeColor=#d6b656;fontColor=#000000;" parent="1" vertex="1">
          <mxGeometry x="110" y="652.5" width="110" height="33.75" as="geometry" />
        </mxCell>
        <mxCell id="W3VaNrcH3F-3W_s_nSpY-2" style="edgeStyle=orthogonalEdgeStyle;rounded=0;orthogonalLoop=1;jettySize=auto;html=1;entryX=1;entryY=1;entryDx=0;entryDy=0;exitX=1;exitY=0.5;exitDx=0;exitDy=0;" edge="1" parent="1" source="KvxemxDDFhoRBfrYI5if-74" target="KvxemxDDFhoRBfrYI5if-75">
          <mxGeometry relative="1" as="geometry">
            <Array as="points">
              <mxPoint x="430" y="596" />
              <mxPoint x="430" y="554" />
            </Array>
          </mxGeometry>
        </mxCell>
        <mxCell id="KvxemxDDFhoRBfrYI5if-74" value="&lt;b&gt;utvec&lt;/b&gt;" style="rounded=1;whiteSpace=wrap;html=1;fontSize=14;fillColor=#d5e8d4;strokeColor=#82b366;" parent="1" vertex="1">
          <mxGeometry x="291.5" y="584.75" width="95" height="22.5" as="geometry" />
        </mxCell>
        <mxCell id="KvxemxDDFhoRBfrYI5if-75" value="&lt;b&gt;&lt;font&gt;UINTR Handler&lt;/font&gt;&lt;/b&gt;" style="rounded=1;whiteSpace=wrap;html=1;fontFamily=Helvetica;fontSize=14;fillColor=#fff2cc;strokeColor=#d6b656;fontColor=#000000;" parent="1" vertex="1">
          <mxGeometry x="286.5" y="520" width="110" height="33.75" as="geometry" />
        </mxCell>
        <mxCell id="KvxemxDDFhoRBfrYI5if-82" value="&lt;b&gt;uip&lt;/b&gt;" style="rounded=1;whiteSpace=wrap;html=1;fontSize=14;fillColor=#d5e8d4;strokeColor=#82b366;" parent="1" vertex="1">
          <mxGeometry x="291.5" y="607.25" width="95" height="22.5" as="geometry" />
        </mxCell>
        <mxCell id="KvxemxDDFhoRBfrYI5if-84" value="&lt;font style=&quot;font-size: 11px;&quot;&gt;Receiver Status Table&lt;/font&gt;" style="text;strokeColor=none;fillColor=none;html=1;fontSize=24;fontStyle=1;verticalAlign=middle;align=center;fontFamily=Helvetica;fontColor=#000000;" parent="1" vertex="1">
          <mxGeometry x="200" y="705" width="100" height="40" as="geometry" />
        </mxCell>
        <mxCell id="W3VaNrcH3F-3W_s_nSpY-3" value="hartid" style="rounded=0;whiteSpace=wrap;html=1;" vertex="1" parent="1">
          <mxGeometry x="212.5" y="760" width="40" height="20" as="geometry" />
        </mxCell>
        <mxCell id="W3VaNrcH3F-3W_s_nSpY-5" style="edgeStyle=orthogonalEdgeStyle;rounded=0;orthogonalLoop=1;jettySize=auto;html=1;entryX=1;entryY=0.5;entryDx=0;entryDy=0;" edge="1" parent="1" source="W3VaNrcH3F-3W_s_nSpY-4" target="KvxemxDDFhoRBfrYI5if-82">
          <mxGeometry relative="1" as="geometry">
            <Array as="points">
              <mxPoint x="430" y="770" />
              <mxPoint x="430" y="619" />
            </Array>
          </mxGeometry>
        </mxCell>
        <mxCell id="W3VaNrcH3F-3W_s_nSpY-4" value="pending" style="rounded=0;whiteSpace=wrap;html=1;align=left;" vertex="1" parent="1">
          <mxGeometry x="252.5" y="760" width="77.5" height="20" as="geometry" />
        </mxCell>
        <mxCell id="W3VaNrcH3F-3W_s_nSpY-10" value="" style="rounded=0;whiteSpace=wrap;html=1;fillColor=#d5e8d4;strokeColor=#82b366;" vertex="1" parent="1">
          <mxGeometry x="170" y="760" width="10" height="20" as="geometry" />
        </mxCell>
        <mxCell id="W3VaNrcH3F-3W_s_nSpY-11" value="" style="rounded=0;whiteSpace=wrap;html=1;fillColor=#d5e8d4;strokeColor=#82b366;" vertex="1" parent="1">
          <mxGeometry x="300" y="760" width="10" height="20" as="geometry" />
        </mxCell>
      </root>
    </mxGraphModel>
  </diagram>
</mxfile>
